<svg xmlns="http://www.w3.org/2000/svg" version="1.1"
    xmlns:xlink="http://www.w3.org/1999/xlink"
    xmlns:svgjs="http://svgjs.dev/svgjs" width="1000" height="1125" viewBox="0 0 1000 1125">
    <g transform="matrix(1,0,0,1,1.7053025658242404e-13,0)">
        <svg viewBox="0 0 320 360" data-background-color="#1b4571" preserveAspectRatio="xMidYMid meet" height="1125" width="1000"
            xmlns="http://www.w3.org/2000/svg"
            xmlns:xlink="http://www.w3.org/1999/xlink">
            <g id="tight-bounds" transform="matrix(1,0,0,1,0,0)">
                <svg viewBox="0 0 320 360" height="360" width="320">
                    <g>
                        <svg></svg>
                    </g>
                    <g>
                        <svg viewBox="0 0 320 360" height="360" width="320">
                            <g>
                                <path xmlns="http://www.w3.org/2000/svg" d="M20.961 227.22l3.726 4.658-1.863-6.056c-0.466-2.795-3.726 0.466-1.863 1.398M25.153 224.425c1.397 2.329 2.795 4.658 2.795 6.987 0 3.261 2.795 4.658 5.123 5.589-3.261-3.726-5.124-13.974-7.918-12.576M204.017 26.929c7.918 0 15.371-0.932 23.756 0.931 20.495 5.124 37.729 15.371 49.374 29.811l32.606 52.169c1.397 13.042 4.192 27.482 3.726 43.319 3.261 0 2.795-4.658 6.521-5.59-3.726 9.316-5.59 20.961-6.521 34.469-2.329-7.453 0-18.632 0.466-24.687-3.261 5.124-5.124 1.397-5.124-0.932 0.466-3.726-1.397-3.261-2.795-4.658-5.124-4.658-8.384-9.782-12.11-17.7 2.329-6.055 2.795-14.905-4.658-19.563-2.329-1.397-5.124-3.726-6.521-7.453-1.863-5.124-5.124-11.179-4.193-19.097 0.466-2.329-6.987 5.124-11.179 1.863-18.166-12.576-36.332-27.016-58.224-39.127-11.645 0-20.029-4.192-24.221-9.316-3.726-4.658-0.932-10.713 4.658-11.179 3.261 0 6.987-0.932 9.782 0.932 0.466-1.863 2.329-4.192 4.657-4.192M157.904 16.215l0.932 0.466c4.658 0.932 6.987 7.453 12.11 5.124 0 3.261 0.466 6.521-0.466 8.85-1.397 3.726-5.59 3.726-8.85 3.726-31.208-1.863-49.374 11.179-68.471 22.358-5.124 3.261-10.713 5.59-14.906 9.782-20.029 18.632-41.921 35.866-47.045 70.335l-4.192 38.195c-0.466 4.192-5.124 8.384-4.192 13.508l3.26 22.824c-3.261-3.261-5.124 0.932-4.192 2.795 0.466 1.397 2.329 6.055 5.124 1.863 3.726 6.987 7.453 20.495 12.576 26.55 15.837 18.632 36.332 35.4 53.101 52.169 4.192-0.932 7.453-0.932 8.384-3.727 1.397 2.795-1.397 5.59-3.726 6.056 7.453 4.658 15.837 8.85 27.016 9.781 14.44 0.932 27.948 3.261 40.524 6.522 6.521-1.863 13.042-2.795 20.029-3.261 2.329 0 3.726-3.726 6.521-4.658l0.466-4.658c2.795 4.192 2.329-1.397 0.466-4.192 3.261 2.795 4.192 5.124 5.589 6.987 0-1.397 3.726-6.521 3.727-0.466l0.931-6.055c1.397-0.932 1.863 5.124 3.261 0.931 1.397-4.192 4.192-0.932 6.987-2.329-0.932 1.863-0.466 5.59 2.794 3.261l3.727-3.261c2.329 5.59 6.055 3.261 7.918 2.329 20.495-13.042 40.99-28.413 60.553-43.784l-0.466 6.055 2.329-7.453c2.329 2.329 4.192 0.466 5.124-0.931 2.795-4.658 6.521-9.316 12.577-13.508-7.453 20.029-16.303 35.866-27.482 48.908l-4.658 5.59c0 3.261-0.932 7.453-4.658 7.918-1.863 0.466-5.59-0.932-8.384 1.863-1.397 1.863 3.261 5.59-0.466 2.795-3.261-2.329-6.521 0-10.248 0.932-2.795 0.932 1.863 3.726 2.795 5.589 0.932 1.863 1.863 3.726 1.398 6.056l-5.124-5.59c-6.055 3.261-9.782 9.316-14.906 13.974-2.329 1.863-1.397 5.124-1.397 7.918-3.261 0-6.987-0.932-8.85 0.932-1.397 1.863-0.932 4.658-0.932 7.453-4.658-0.466-5.124-7.453-9.315-6.056-4.192 0.932-8.85 1.397-12.577 3.727 2.795 5.59-4.658 2.329-3.726 3.26-6.987-4.192-13.042-7.453-20.495-4.658-15.837-5.124-35.4-2.795-49.84-0.931 0-2.329 0.466-4.658-0.466-5.124-0.932 2.329-3.726 1.397-3.26 1.397-8.85-6.055-17.7-9.782-27.016-14.905-8.384 0.932-16.303-3.261-18.632-5.59-6.521-6.055-13.974-2.795-20.029-4.192-13.042-3.261-17.7-16.769-19.098-26.084-0.932-4.658-4.658-6.521-6.055-6.056-6.055-19.563-15.371-37.263-22.824-55.429-1.863-4.658-1.397-9.316-1.397-14.44 2.329 0.932 4.658 0.466 4.192-2.794-2.329-15.371-7.918-27.016-13.974-38.195 3.261-15.837 3.726-34.469 11.179-48.443 6.521-12.576 18.632-19.098 27.016-29.811 2.795-3.726 2.795-8.85 5.59-12.11 9.316-9.316 18.632-19.098 28.879-27.482 4.658-3.726 10.247 0 17.234-1.397 2.329-8.384 11.645-15.837 20.495-13.508 3.726 0.932 11.179-8.85 13.508-9.782 3.726-1.397 1.863 3.726 1.863 6.987 8.85-6.987 20.961-10.713 32.14-14.906" fill="#ffffff" fill-rule="nonzero" stroke="none" stroke-width="1" stroke-linecap="butt" stroke-linejoin="miter" stroke-miterlimit="10" stroke-dasharray="" stroke-dashoffset="0" font-family="none" font-weight="none" font-size="none" text-anchor="none" style="mix-blend-mode: normal" data-fill-palette-color="tertiary"></path>
                            </g>
                            <g transform="matrix(1,0,0,1,64,92.5141420345243)">
                                <svg viewBox="0 0 192 174.9717159309514" height="174.9717159309514" width="192">
                                    <g>
                                        <svg viewBox="0 0 192 174.9717159309514" height="174.9717159309514" width="192">
                                            <g>
                                                <svg viewBox="0 0 192 174.9717159309514" height="174.9717159309514" width="192">
                                                    <g transform="matrix(1,0,0,1,0,105.7561398570855)">
                                                        <svg viewBox="0 0 192 69.2155760738659" height="69.2155760738659" width="192">
                                                            <g id="textblocktransform">
                                                                <svg viewBox="0 0 192 69.2155760738659" height="69.2155760738659" width="192" id="textblock">
                                                                    <g>
                                                                        <svg viewBox="0 0 192 69.2155760738659" height="69.2155760738659" width="192">
                                                                            <g transform="matrix(1,0,0,1,0,0)">
                                                                                <svg width="192" viewBox="1.5 -34.5 124.54000091552734 44.900001525878906" height="69.2155760738659" data-palette-color="#ffffff">
                                                                                    <path d="M34.05-5.85L34.05-18.85Q34.05-20.85 34.4-25.05L34.4-25.05 34.5-26.25 34-26.3Q32.85-22.05 32-19.55L32-19.55 25.35 0 18.7 0 11.7-19.55Q10.75-21.8 10-25.15L10-25.15 9.7-26.3 9.2-26.25Q9.65-21.8 9.65-18.85L9.65-18.85 9.65-5.7Q11.5-5 12.4-3.85L12.4-3.85 11.9 0 2.1 0 1.6-3.85Q2.5-5 4.35-5.7L4.35-5.7 4.35-28.8Q2.3-29.55 1.5-30.65L1.5-30.65 2-34.5 13.4-34.5 20.7-14.35Q22.1-11.05 22.5-8.3L22.5-8.3 22.65-7.45 23.35-7.45Q23.55-10.5 25.15-14.35L25.15-14.35 32.1-34.5 43.3-34.5 43.8-30.65Q43-29.55 40.95-28.8L40.95-28.8 40.95-5.9Q42.9-5.15 43.7-4.15L43.7-4.15 43.2 0 31.8 0 31.3-4.1Q32.1-5.1 34.05-5.85L34.05-5.85ZM55-18.85L55-18.85 55-5.7Q56.85-5 57.75-3.85L57.75-3.85 57.25 0 47.45 0 46.95-3.85Q47.85-5 49.7-5.7L49.7-5.7 49.7-28.8Q47.65-29.55 46.85-30.65L46.85-30.65 47.35-34.5 57.65-34.5 67.6-15.1Q68.7-13 69.75-9.5L69.75-9.5 70.1-8.3 70.65-8.5Q69.95-12.85 69.95-15.8L69.95-15.8 69.95-28.75Q68.15-29.45 67.2-30.65L67.2-30.65 67.7-34.5 77.5-34.5 78-30.65Q77.05-29.45 75.25-28.75L75.25-28.75 75.25 0 67.4 0 57.35-19.55Q56.25-21.65 55.2-25.2L55.2-25.2 54.85-26.35 54.3-26.15Q55-21.8 55-18.85ZM79.75 5L79.75 5Q81.55 5 82.3 4.08 83.05 3.15 83.05 0.45L83.05 0.45 83.05-28.65Q81-29.4 80.3-30.35L80.3-30.35 80.8-34.5 92.5-34.5 93-30.35Q92.2-29.4 90.25-28.65L90.25-28.65 90.2 0Q90.2 5.75 87.97 8.08 85.75 10.4 80.77 10.4 75.8 10.4 72.25 7.8L72.25 7.8Q72.25 7.5 72.25 6.73 72.25 5.95 72.57 4.17 72.9 2.4 73.5 1.2L73.5 1.2 78 1.2Q78.7 2.3 79 4.95L79 4.95Q79.25 5 79.75 5ZM113.29 0.25L106.44 0.25 96.94-28.65Q94.79-29.45 94.14-30.35L94.14-30.35 94.64-34.5 106.34-34.5 106.84-30.35Q106.14-29.4 104.29-28.75L104.29-28.75 108.54-13.95Q109.59-10.5 109.84-7.6L109.84-7.6 109.89-6.75 110.59-6.75Q110.64-9.8 111.84-13.85L111.84-13.85 116.29-28.7Q114.39-29.35 113.64-30.35L113.64-30.35 114.14-34.5 125.54-34.5 126.04-30.35Q125.14-29.25 122.69-28.45L122.69-28.45 113.29 0.25Z" opacity="1" transform="matrix(1,0,0,1,0,0)" fill="#ffffff" class="wordmark-text-0" data-fill-palette-color="primary" id="text-0"></path>
                                                                                </svg>
                                                                            </g>
                                                                        </svg>
                                                                    </g>
                                                                </svg>
                                                            </g>
                                                        </svg>
                                                    </g>
                                                    <g transform="matrix(1,0,0,1,48.038653623536135,0)">
                                                        <svg viewBox="0 0 95.92269275292773 95.65592613408269" height="95.65592613408269" width="95.92269275292773">
                                                            <g>
                                                                <svg xmlns="http://www.w3.org/2000/svg"
                                                                    xmlns:xlink="http://www.w3.org/1999/xlink" version="1.1" x="0" y="0" viewBox="5.958038806915283 6.079999923706055 88.08596801757812 87.84099578857422" enable-background="new 0 0 100 100" xml:space="preserve" height="95.65592613408269" width="95.92269275292773" class="icon-icon-0" data-fill-palette-color="accent" id="icon-0">
                                                                    <path d="M87.921 64.017c-1.854-1.63-17.356-7.408-25.238-10.109 3.012-3.726 4.971-8.288 5.784-11.438 1.18-1.17 2.043-3.33 2.118-5.423 0.064-1.801-0.465-3.362-1.501-4.468 0.006-0.536 3.317-7.547 0.336-15.516C66.111 8.218 59.389 6.08 55.611 6.08c-4.634 0-8.772 2.64-10.726 4.118-0.989-0.935-2.609-2.065-4.653-2.065-3.293 0-6.983 2.111-9.502 7.698-3.466 7.691-0.566 14.727 0.305 17.193-0.927 0.987-1.425 2.306-1.42 3.814 0.006 2.079 1.004 4.436 2.349 5.687 0.552 2.109 2.108 7.061 5.408 11.383-16.008 6.026-24.514 9.463-25.291 10.22-1.808 1.76-4.854 15.645-6.08 20.673-0.11 0.45-0.006 0.926 0.28 1.291 0.287 0.365 0.724 0.577 1.188 0.577h12.229l1.472 6.095c0.164 0.679 0.771 1.157 1.468 1.157H77.87c0.698 0 1.305-0.478 1.468-1.156l1.472-6.096h11.703c0.007 0 0.013 0 0.02 0 0.835 0 1.511-0.677 1.511-1.511C94.044 84.976 89.842 65.705 87.921 64.017zM34.775 41.32c-0.088-0.364-0.307-0.683-0.616-0.894-0.604-0.413-1.524-2.058-1.524-3.597 0-2.019 1.304-2.066 1.304-2.066 0.307-0.028 2.688-4.897 3.539-7.753 0.737-2.474 1.049-4.361 1.175-5.639 2.111 1.744 5.034 3.768 11.894 3.72 6.507-0.046 10.276-4.721 11.031-5.394 2.606 3.724 4.423 14.985 4.48 15.066 0.046 0.067 1.597 0.063 1.507 2.175-0.073 1.728-0.887 3.16-1.331 3.477-0.302 0.215-0.514 0.535-0.596 0.897-0.714 3.15-4.751 16.529-15.618 16.529C38.942 57.841 35.193 43.058 34.775 41.32zM76.681 90.899H23.826l-4.104-18.849h61.063L76.681 90.899z" fill="#bf2051" data-fill-palette-color="accent"></path>
                                                                </svg>
                                                            </g>
                                                        </svg>
                                                    </g>
                                                    <g></g>
                                                </svg>
                                            </g>
                                        </svg>
                                    </g>
                                </svg>
                            </g>
                        </svg>
                    </g>
                    <defs></defs>
                </svg>
                <rect width="320" height="360" fill="none" stroke="none" visibility="hidden"></rect>
            </g>
        </svg>
    </g>
</svg>